<svg xmlns="http://www.w3.org/2000/svg" viewBox="0 0 32 32" fill="none">
  <rect width="32" height="32" rx="8" fill="url(#g)"/>
  <path d="M8 22V10h3.2c2.4 0 4 1.4 4 3.6 0 1.2-.5 2.2-1.4 2.8L16.2 22H12.6l-1.1-4.7h-.9V22H8zm3.2-7.3c1 0 1.6-.6 1.6-1.5 0-.9-.6-1.4-1.6-1.4h-.7v2.9h.7zM18.2 22V10h5.8v2.4h-2.6v2.3h2.3v2.3h-2.3v4.9h-3.2z" fill="white"/>
  <defs>
    <linearGradient id="g" x1="6" y1="4" x2="26" y2="28" gradientUnits="userSpaceOnUse">
      <stop stop-color="#3B82F6"/>
      <stop offset="1" stop-color="#6366F1"/>
    </linearGradient>
  </defs>
</svg>
